<svg xmlns="http://www.w3.org/2000/svg" xmlns:xlink="http://www.w3.org/1999/xlink" width="1920" zoomAndPan="magnify" viewBox="0 0 1440 809.999993" height="1080" preserveAspectRatio="xMidYMid meet" version="1.0"><defs><clipPath id="378cea0891"><path d="M 580.085938 335.019531 L 823.085938 335.019531 L 823.085938 578.019531 L 580.085938 578.019531 Z M 580.085938 335.019531 " clip-rule="nonzero"/></clipPath><clipPath id="3ea7cfa636"><path d="M 701.585938 335.019531 C 634.484375 335.019531 580.085938 389.417969 580.085938 456.519531 C 580.085938 523.621094 634.484375 578.019531 701.585938 578.019531 C 768.691406 578.019531 823.085938 523.621094 823.085938 456.519531 C 823.085938 389.417969 768.691406 335.019531 701.585938 335.019531 Z M 701.585938 335.019531 " clip-rule="nonzero"/></clipPath><clipPath id="4bd5d1f82b"><path d="M 0.0859375 0.0195312 L 243.085938 0.0195312 L 243.085938 243.019531 L 0.0859375 243.019531 Z M 0.0859375 0.0195312 " clip-rule="nonzero"/></clipPath><clipPath id="18282de5c6"><path d="M 121.585938 0.0195312 C 54.484375 0.0195312 0.0859375 54.417969 0.0859375 121.519531 C 0.0859375 188.621094 54.484375 243.019531 121.585938 243.019531 C 188.691406 243.019531 243.085938 188.621094 243.085938 121.519531 C 243.085938 54.417969 188.691406 0.0195312 121.585938 0.0195312 Z M 121.585938 0.0195312 " clip-rule="nonzero"/></clipPath><clipPath id="86117af7de"><rect x="0" width="244" y="0" height="244"/></clipPath><clipPath id="e4dc90d703"><path d="M 617.875 335.019531 L 860.875 335.019531 L 860.875 578.019531 L 617.875 578.019531 Z M 617.875 335.019531 " clip-rule="nonzero"/></clipPath><clipPath id="fed88b025e"><path d="M 739.375 335.019531 C 672.273438 335.019531 617.875 389.417969 617.875 456.519531 C 617.875 523.621094 672.273438 578.019531 739.375 578.019531 C 806.476562 578.019531 860.875 523.621094 860.875 456.519531 C 860.875 389.417969 806.476562 335.019531 739.375 335.019531 Z M 739.375 335.019531 " clip-rule="nonzero"/></clipPath><clipPath id="b7baf7d6c6"><path d="M 0.875 0.0195312 L 243.875 0.0195312 L 243.875 243.019531 L 0.875 243.019531 Z M 0.875 0.0195312 " clip-rule="nonzero"/></clipPath><clipPath id="c6b24b3c5e"><path d="M 122.375 0.0195312 C 55.273438 0.0195312 0.875 54.417969 0.875 121.519531 C 0.875 188.621094 55.273438 243.019531 122.375 243.019531 C 189.476562 243.019531 243.875 188.621094 243.875 121.519531 C 243.875 54.417969 189.476562 0.0195312 122.375 0.0195312 Z M 122.375 0.0195312 " clip-rule="nonzero"/></clipPath><clipPath id="a5118fa015"><rect x="0" width="244" y="0" height="244"/></clipPath><clipPath id="458cbfe90a"><path d="M 594.550781 227.980469 L 846.414062 227.980469 L 846.414062 479.84375 L 594.550781 479.84375 Z M 594.550781 227.980469 " clip-rule="nonzero"/></clipPath><clipPath id="85904e6408"><path d="M 720.480469 227.980469 C 650.933594 227.980469 594.550781 284.363281 594.550781 353.914062 C 594.550781 423.464844 650.933594 479.84375 720.480469 479.84375 C 790.03125 479.84375 846.414062 423.464844 846.414062 353.914062 C 846.414062 284.363281 790.03125 227.980469 720.480469 227.980469 Z M 720.480469 227.980469 " clip-rule="nonzero"/></clipPath><clipPath id="eb2d794e88"><path d="M 0.550781 0.980469 L 252.414062 0.980469 L 252.414062 252.84375 L 0.550781 252.84375 Z M 0.550781 0.980469 " clip-rule="nonzero"/></clipPath><clipPath id="0f2f7ebf82"><path d="M 126.480469 0.980469 C 56.933594 0.980469 0.550781 57.363281 0.550781 126.914062 C 0.550781 196.464844 56.933594 252.84375 126.480469 252.84375 C 196.03125 252.84375 252.414062 196.464844 252.414062 126.914062 C 252.414062 57.363281 196.03125 0.980469 126.480469 0.980469 Z M 126.480469 0.980469 " clip-rule="nonzero"/></clipPath><clipPath id="a36d88e32e"><rect x="0" width="253" y="0" height="253"/></clipPath><clipPath id="0e98f014b4"><path d="M 617.875 251.308594 L 823.085938 251.308594 L 823.085938 456.519531 L 617.875 456.519531 Z M 617.875 251.308594 " clip-rule="nonzero"/></clipPath><clipPath id="66fd7d0fd0"><path d="M 720.480469 251.308594 C 663.8125 251.308594 617.875 297.246094 617.875 353.914062 C 617.875 410.582031 663.8125 456.519531 720.480469 456.519531 C 777.148438 456.519531 823.085938 410.582031 823.085938 353.914062 C 823.085938 297.246094 777.148438 251.308594 720.480469 251.308594 Z M 720.480469 251.308594 " clip-rule="nonzero"/></clipPath><clipPath id="5dbfc6038a"><path d="M 0.875 0.308594 L 206.085938 0.308594 L 206.085938 205.519531 L 0.875 205.519531 Z M 0.875 0.308594 " clip-rule="nonzero"/></clipPath><clipPath id="f37c1f9f5a"><path d="M 103.480469 0.308594 C 46.8125 0.308594 0.875 46.246094 0.875 102.914062 C 0.875 159.582031 46.8125 205.519531 103.480469 205.519531 C 160.148438 205.519531 206.085938 159.582031 206.085938 102.914062 C 206.085938 46.246094 160.148438 0.308594 103.480469 0.308594 Z M 103.480469 0.308594 " clip-rule="nonzero"/></clipPath><clipPath id="3246ee2fe1"><rect x="0" width="207" y="0" height="206"/></clipPath><clipPath id="da70e3a775"><path d="M 649.605469 333.101562 L 791.355469 333.101562 L 791.355469 576.734375 L 649.605469 576.734375 Z M 649.605469 333.101562 " clip-rule="nonzero"/></clipPath><clipPath id="95cefd0f76"><path d="M 791.355469 506.015625 C 791.355469 545.027344 759.625 576.652344 720.480469 576.652344 C 681.339844 576.652344 649.605469 545.027344 649.605469 506.015625 C 649.605469 395.816406 720.480469 333.652344 720.480469 333.652344 C 720.480469 333.652344 791.355469 398.640625 791.355469 506.015625 Z M 791.355469 506.015625 " clip-rule="nonzero"/></clipPath><clipPath id="a4faa69a79"><path d="M 0.605469 0.601562 L 142.355469 0.601562 L 142.355469 243.71875 L 0.605469 243.71875 Z M 0.605469 0.601562 " clip-rule="nonzero"/></clipPath><clipPath id="e2454db11b"><path d="M 142.355469 173.015625 C 142.355469 212.027344 110.625 243.652344 71.480469 243.652344 C 32.339844 243.652344 0.605469 212.027344 0.605469 173.015625 C 0.605469 62.816406 71.480469 0.652344 71.480469 0.652344 C 71.480469 0.652344 142.355469 65.640625 142.355469 173.015625 Z M 142.355469 173.015625 " clip-rule="nonzero"/></clipPath><clipPath id="f09eecd24b"><rect x="0" width="143" y="0" height="244"/></clipPath><clipPath id="def10ca044"><path d="M 690.953125 356.902344 L 750.097656 356.902344 L 750.097656 408.578125 L 690.953125 408.578125 Z M 690.953125 356.902344 " clip-rule="nonzero"/></clipPath><clipPath id="47cbb6a154"><path d="M 720.480469 408.578125 L 750.011719 356.902344 L 690.953125 356.902344 Z M 720.480469 408.578125 " clip-rule="nonzero"/></clipPath><clipPath id="d83b4fab94"><path d="M 0.953125 0.902344 L 60.097656 0.902344 L 60.097656 52.578125 L 0.953125 52.578125 Z M 0.953125 0.902344 " clip-rule="nonzero"/></clipPath><clipPath id="cdd0e3ec3b"><path d="M 30.480469 52.578125 L 60.011719 0.902344 L 0.953125 0.902344 Z M 30.480469 52.578125 " clip-rule="nonzero"/></clipPath><clipPath id="93bf109b0e"><rect x="0" width="61" y="0" height="53"/></clipPath><clipPath id="36b22b63a6"><path d="M 742 310.699219 L 809 310.699219 L 809 345 L 742 345 Z M 742 310.699219 " clip-rule="nonzero"/></clipPath><clipPath id="d873ab03b0"><path d="M 633.3125 310.699219 L 701 310.699219 L 701 345 L 633.3125 345 Z M 633.3125 310.699219 " clip-rule="nonzero"/></clipPath><clipPath id="3e25524297"><path d="M 657.878906 559.433594 L 701.660156 559.433594 L 701.660156 581.71875 L 657.878906 581.71875 Z M 657.878906 559.433594 " clip-rule="nonzero"/></clipPath><clipPath id="3087b145e0"><path d="M 701.585938 581.71875 C 701.585938 569.582031 691.636719 559.433594 679.734375 559.433594 C 667.828125 559.433594 657.878906 569.582031 657.878906 581.71875 Z M 701.585938 581.71875 " clip-rule="nonzero"/></clipPath><clipPath id="5c1af31e0c"><path d="M 0.878906 0.433594 L 44.660156 0.433594 L 44.660156 22.71875 L 0.878906 22.71875 Z M 0.878906 0.433594 " clip-rule="nonzero"/></clipPath><clipPath id="49d1b64b73"><path d="M 44.585938 22.71875 C 44.585938 10.582031 34.636719 0.433594 22.734375 0.433594 C 10.828125 0.433594 0.878906 10.582031 0.878906 22.71875 Z M 44.585938 22.71875 " clip-rule="nonzero"/></clipPath><clipPath id="06a86560c2"><rect x="0" width="45" y="0" height="23"/></clipPath><clipPath id="8620d3646b"><path d="M 739.375 559.433594 L 783.15625 559.433594 L 783.15625 581.71875 L 739.375 581.71875 Z M 739.375 559.433594 " clip-rule="nonzero"/></clipPath><clipPath id="2cb8e8de61"><path d="M 783.082031 581.71875 C 783.082031 569.582031 773.132812 559.433594 761.230469 559.433594 C 749.324219 559.433594 739.375 569.582031 739.375 581.71875 Z M 783.082031 581.71875 " clip-rule="nonzero"/></clipPath><clipPath id="387895dc58"><path d="M 0.375 0.433594 L 44.121094 0.433594 L 44.121094 22.71875 L 0.375 22.71875 Z M 0.375 0.433594 " clip-rule="nonzero"/></clipPath><clipPath id="61cd6b7959"><path d="M 44.082031 22.71875 C 44.082031 10.582031 34.132812 0.433594 22.230469 0.433594 C 10.324219 0.433594 0.375 10.582031 0.375 22.71875 Z M 44.082031 22.71875 " clip-rule="nonzero"/></clipPath><clipPath id="7f40952624"><rect x="0" width="45" y="0" height="23"/></clipPath><clipPath id="ef2d819a8e"><path d="M 558 424 L 658 424 L 658 526 L 558 526 Z M 558 424 " clip-rule="nonzero"/></clipPath><clipPath id="3f8e38bf00"><path d="M 593.242188 555.089844 L 528.550781 494.5625 L 612.015625 405.355469 L 676.707031 465.886719 Z M 593.242188 555.089844 " clip-rule="nonzero"/></clipPath><clipPath id="056f9b4d45"><path d="M 583.628906 435.691406 C 596.957031 421.449219 626.28125 419.136719 644.144531 435.851562 C 662.007812 452.566406 661.648438 481.980469 648.320312 496.222656 C 612.519531 534.488281 561.132812 524.574219 561.132812 524.574219 C 561.132812 524.574219 546.863281 474.988281 583.628906 435.691406 Z M 583.628906 435.691406 " clip-rule="nonzero"/></clipPath><clipPath id="731316a1c3"><path d="M 0 0 L 100 0 L 100 102 L 0 102 Z M 0 0 " clip-rule="nonzero"/></clipPath><clipPath id="2c96d43966"><path d="M 35.242188 131.089844 L -29.449219 70.5625 L 54.015625 -18.644531 L 118.707031 41.886719 Z M 35.242188 131.089844 " clip-rule="nonzero"/></clipPath><clipPath id="ffa6a554b9"><path d="M 25.628906 11.691406 C 38.957031 -2.550781 68.28125 -4.863281 86.144531 11.851562 C 104.007812 28.566406 103.648438 57.980469 90.320312 72.222656 C 54.519531 110.488281 3.132812 100.574219 3.132812 100.574219 C 3.132812 100.574219 -11.136719 50.988281 25.628906 11.691406 Z M 25.628906 11.691406 " clip-rule="nonzero"/></clipPath><clipPath id="955f581f79"><rect x="0" width="100" y="0" height="102"/></clipPath><clipPath id="f14163393b"><path d="M 783 417 L 882 417 L 882 522 L 783 522 Z M 783 417 " clip-rule="nonzero"/></clipPath><clipPath id="fc8eadabe0"><path d="M 911.433594 492.863281 L 843.277344 549.460938 L 765.234375 455.472656 L 833.394531 398.878906 Z M 911.433594 492.863281 " clip-rule="nonzero"/></clipPath><clipPath id="cfc57930d7"><path d="M 791.773438 487.4375 C 779.3125 472.429688 780.695312 443.046875 799.515625 427.417969 C 818.339844 411.789062 847.472656 415.832031 859.933594 430.839844 C 893.410156 471.15625 877.132812 520.894531 877.132812 520.894531 C 877.132812 520.894531 826.152344 528.839844 791.773438 487.4375 Z M 791.773438 487.4375 " clip-rule="nonzero"/></clipPath><clipPath id="d58f090a17"><path d="M 0 0 L 99 0 L 99 105 L 0 105 Z M 0 0 " clip-rule="nonzero"/></clipPath><clipPath id="5dba5f49af"><path d="M 128.433594 75.863281 L 60.277344 132.460938 L -17.765625 38.472656 L 50.394531 -18.121094 Z M 128.433594 75.863281 " clip-rule="nonzero"/></clipPath><clipPath id="ed83f64cb8"><path d="M 8.773438 70.4375 C -3.6875 55.429688 -2.304688 26.046875 16.515625 10.417969 C 35.339844 -5.210938 64.472656 -1.167969 76.933594 13.839844 C 110.410156 54.15625 94.132812 103.894531 94.132812 103.894531 C 94.132812 103.894531 43.152344 111.839844 8.773438 70.4375 Z M 8.773438 70.4375 " clip-rule="nonzero"/></clipPath><clipPath id="587d298109"><rect x="0" width="99" y="0" height="105"/></clipPath></defs><g clip-path="url(#378cea0891)"><g clip-path="url(#3ea7cfa636)"><g transform="matrix(1, 0, 0, 1, 580, 335)"><g clip-path="url(#86117af7de)"><g clip-path="url(#4bd5d1f82b)"><g clip-path="url(#18282de5c6)"><path fill="#30425c" d="M 0.0859375 0.0195312 L 243.085938 0.0195312 L 243.085938 243.019531 L 0.0859375 243.019531 Z M 0.0859375 0.0195312 " fill-opacity="1" fill-rule="nonzero"/></g></g></g></g></g></g><g clip-path="url(#e4dc90d703)"><g clip-path="url(#fed88b025e)"><g transform="matrix(1, 0, 0, 1, 617, 335)"><g clip-path="url(#a5118fa015)"><g clip-path="url(#b7baf7d6c6)"><g clip-path="url(#c6b24b3c5e)"><path fill="#30425c" d="M 0.875 0.0195312 L 243.875 0.0195312 L 243.875 243.019531 L 0.875 243.019531 Z M 0.875 0.0195312 " fill-opacity="1" fill-rule="nonzero"/></g></g></g></g></g></g><g clip-path="url(#458cbfe90a)"><g clip-path="url(#85904e6408)"><g transform="matrix(1, 0, 0, 1, 594, 227)"><g clip-path="url(#a36d88e32e)"><g clip-path="url(#eb2d794e88)"><g clip-path="url(#0f2f7ebf82)"><path fill="#30425c" d="M 0.550781 0.980469 L 252.414062 0.980469 L 252.414062 252.84375 L 0.550781 252.84375 Z M 0.550781 0.980469 " fill-opacity="1" fill-rule="nonzero"/></g></g></g></g></g></g><g clip-path="url(#0e98f014b4)"><g clip-path="url(#66fd7d0fd0)"><g transform="matrix(1, 0, 0, 1, 617, 251)"><g clip-path="url(#3246ee2fe1)"><g clip-path="url(#5dbfc6038a)"><g clip-path="url(#f37c1f9f5a)"><path fill="#f5f5f5" d="M 0.875 0.308594 L 206.085938 0.308594 L 206.085938 205.519531 L 0.875 205.519531 Z M 0.875 0.308594 " fill-opacity="1" fill-rule="nonzero"/></g></g></g></g></g></g><g clip-path="url(#da70e3a775)"><g clip-path="url(#95cefd0f76)"><g transform="matrix(1, 0, 0, 1, 649, 333)"><g clip-path="url(#f09eecd24b)"><g clip-path="url(#a4faa69a79)"><g clip-path="url(#e2454db11b)"><path fill="#f5f5f5" d="M 0.605469 0.652344 L 142.355469 0.652344 L 142.355469 243.734375 L 0.605469 243.734375 Z M 0.605469 0.652344 " fill-opacity="1" fill-rule="nonzero"/></g></g></g></g></g></g><g clip-path="url(#def10ca044)"><g clip-path="url(#47cbb6a154)"><g transform="matrix(1, 0, 0, 1, 690, 356)"><g clip-path="url(#93bf109b0e)"><g clip-path="url(#d83b4fab94)"><g clip-path="url(#cdd0e3ec3b)"><path fill="#ff914d" d="M 0.953125 0.902344 L 60.097656 0.902344 L 60.097656 52.578125 L 0.953125 52.578125 Z M 0.953125 0.902344 " fill-opacity="1" fill-rule="nonzero"/></g></g></g></g></g></g><g clip-path="url(#36b22b63a6)"><path fill="#30425c" d="M 742.761719 333.125 C 746.539062 325.253906 751.0625 319.746094 756.328125 316.609375 L 756.285156 316.636719 C 762.921875 312.59375 770.363281 310.707031 778.605469 310.984375 C 778.75 310.988281 778.890625 311 779.03125 311.015625 C 793.523438 312.671875 803.28125 321.539062 808.304688 337.625 C 809.183594 340.425781 807.621094 343.410156 804.816406 344.285156 C 802.011719 345.160156 799.03125 343.597656 798.15625 340.796875 C 794.507812 329.117188 787.730469 322.710938 777.828125 321.582031 L 778.253906 321.613281 C 772.125 321.40625 766.648438 322.777344 761.820312 325.71875 C 761.804688 325.726562 761.789062 325.734375 761.773438 325.742188 C 758.34375 327.789062 755.203125 331.785156 752.34375 337.730469 C 751.074219 340.375 747.898438 341.492188 745.25 340.222656 C 742.605469 338.949219 741.488281 335.773438 742.761719 333.125 Z M 742.761719 333.125 " fill-opacity="1" fill-rule="nonzero"/></g><g clip-path="url(#d873ab03b0)"><path fill="#30425c" d="M 699.722656 333.125 C 695.941406 325.253906 691.417969 319.746094 686.152344 316.609375 L 686.195312 316.636719 C 679.558594 312.59375 672.121094 310.707031 663.875 310.984375 C 663.734375 310.988281 663.589844 311 663.449219 311.015625 C 648.960938 312.671875 639.203125 321.539062 634.175781 337.625 C 633.296875 340.425781 634.863281 343.410156 637.664062 344.285156 C 640.46875 345.160156 643.449219 343.597656 644.324219 340.796875 C 647.976562 329.117188 654.753906 322.710938 664.660156 321.582031 L 664.234375 321.613281 C 670.359375 321.40625 675.835938 322.777344 680.667969 325.71875 C 680.679688 325.726562 680.695312 325.734375 680.710938 325.742188 C 684.140625 327.789062 687.285156 331.785156 690.136719 337.730469 C 691.40625 340.375 694.582031 341.492188 697.230469 340.222656 C 699.878906 338.949219 700.996094 335.773438 699.722656 333.125 Z M 699.722656 333.125 " fill-opacity="1" fill-rule="nonzero"/></g><g clip-path="url(#3e25524297)"><g clip-path="url(#3087b145e0)"><g transform="matrix(1, 0, 0, 1, 657, 559)"><g clip-path="url(#06a86560c2)"><g clip-path="url(#5c1af31e0c)"><g clip-path="url(#49d1b64b73)"><path fill="#ff914d" d="M 0.878906 0.433594 L 44.574219 0.433594 L 44.574219 22.71875 L 0.878906 22.71875 Z M 0.878906 0.433594 " fill-opacity="1" fill-rule="nonzero"/></g></g></g></g></g></g><g clip-path="url(#8620d3646b)"><g clip-path="url(#2cb8e8de61)"><g transform="matrix(1, 0, 0, 1, 739, 559)"><g clip-path="url(#7f40952624)"><g clip-path="url(#387895dc58)"><g clip-path="url(#61cd6b7959)"><path fill="#ff914d" d="M 0.375 0.433594 L 44.070312 0.433594 L 44.070312 22.71875 L 0.375 22.71875 Z M 0.375 0.433594 " fill-opacity="1" fill-rule="nonzero"/></g></g></g></g></g></g><g clip-path="url(#ef2d819a8e)"><g clip-path="url(#3f8e38bf00)"><g clip-path="url(#056f9b4d45)"><g transform="matrix(1, 0, 0, 1, 558, 424)"><g clip-path="url(#955f581f79)"><g clip-path="url(#731316a1c3)"><g clip-path="url(#2c96d43966)"><g clip-path="url(#ffa6a554b9)"><path fill="#40536e" d="M 35.476562 130.839844 L -29.214844 70.308594 L 53.777344 -18.390625 L 118.46875 42.140625 Z M 35.476562 130.839844 " fill-opacity="1" fill-rule="nonzero"/></g></g></g></g></g></g></g></g><g clip-path="url(#f14163393b)"><g clip-path="url(#fc8eadabe0)"><g clip-path="url(#cfc57930d7)"><g transform="matrix(1, 0, 0, 1, 783, 417)"><g clip-path="url(#587d298109)"><g clip-path="url(#d58f090a17)"><g clip-path="url(#5dba5f49af)"><g clip-path="url(#ed83f64cb8)"><path fill="#40536e" d="M 128.214844 75.597656 L 60.054688 132.191406 L -17.542969 38.742188 L 50.617188 -17.855469 Z M 128.214844 75.597656 " fill-opacity="1" fill-rule="nonzero"/></g></g></g></g></g></g></g></g></svg>